HIERARCHY
ROOT hip
{
	OFFSET 0.000000 0.000000 0.000000
	CHANNELS 6 Xposition Yposition Zposition Zrotation Yrotation Xrotation 
	JOINT lhipjoint
	{
		OFFSET 0.000000 0.000000 0.000000
		CHANNELS 3 Zrotation Yrotation Xrotation
		JOINT lfemur
		{
			OFFSET 1.363060 -1.794630 0.839290
			CHANNELS 3 Zrotation Yrotation Xrotation
			JOINT ltibia
			{
				OFFSET 2.448110 -6.726130 0.000000
				CHANNELS 3 Zrotation Yrotation Xrotation
				JOINT lfoot
				{
					OFFSET 2.562200 -7.039590 0.000000
					CHANNELS 3 Zrotation Yrotation Xrotation
					JOINT ltoes
					{
						OFFSET 0.157640 -0.433110 2.322550
						CHANNELS 3 Zrotation Yrotation Xrotation
						End Site
						{
							OFFSET 0.000000 0.000000 0.000000
						}
					}
				}
			}
		}
	}
	JOINT rhipjoint
	{
		OFFSET 0.000000 0.000000 0.000000
		CHANNELS 3 Zrotation Yrotation Xrotation
		JOINT rfemur
		{
			OFFSET -1.305520 -1.794630 0.839290
			CHANNELS 3 Zrotation Yrotation Xrotation
			JOINT rtibia
			{
				OFFSET -2.542530 -6.985550 0.000000
				CHANNELS 3 Zrotation Yrotation Xrotation
				JOINT rfoot
				{
					OFFSET -2.568260 -7.056230 0.000000
					CHANNELS 3 Zrotation Yrotation Xrotation
					JOINT rtoes
					{
						OFFSET -0.164730 -0.452590 2.363150
						CHANNELS 3 Zrotation Yrotation Xrotation
						End Site
						{
							OFFSET 0.000000 0.000000 0.000000
						}
					}
				}
			}
		}
	}
	JOINT lowerback
	{
		OFFSET 0.000000 0.000000 0.000000
		CHANNELS 3 Zrotation Yrotation Xrotation
		JOINT upperback
		{
			OFFSET 0.028270 2.035590 -0.193380
			CHANNELS 3 Zrotation Yrotation Xrotation
			JOINT thorax
			{
				OFFSET 0.056720 2.048850 -0.042750
				CHANNELS 3 Zrotation Yrotation Xrotation
				JOINT lowerneck
				{
					OFFSET 0.000000 0.000000 0.000000
					CHANNELS 3 Zrotation Yrotation Xrotation
					JOINT upperneck
					{
						OFFSET -0.054170 1.746240 0.172020
						CHANNELS 3 Zrotation Yrotation Xrotation
						JOINT head
						{
							OFFSET 0.104070 1.761360 -0.123970
							CHANNELS 3 Zrotation Yrotation Xrotation
							End Site
							{
								OFFSET 0.000000 0.000000 0.000000
							}
						}
					}
				}
				JOINT lclavicle
				{
					OFFSET 0.000000 0.000000 0.000000
					CHANNELS 3 Zrotation Yrotation Xrotation
					JOINT lhumerus
					{
						OFFSET 3.362410 1.200890 -0.311210
						CHANNELS 3 Zrotation Yrotation Xrotation
						JOINT lradius
						{
							OFFSET 4.983000 -0.000000 -0.000000
							CHANNELS 3 Zrotation Yrotation Xrotation
							JOINT lwrist
							{
								OFFSET 3.483560 -0.000000 -0.000000
								CHANNELS 3 Zrotation Yrotation Xrotation
								JOINT lhand
								{
									OFFSET 0.000000 0.000000 0.000000
									CHANNELS 3 Zrotation Yrotation Xrotation
									JOINT lfingers
									{
										OFFSET 0.715260 -0.000000 -0.000000
										CHANNELS 3 Zrotation Yrotation Xrotation
										End Site
										{
											OFFSET 0.000000 0.000000 0.000000
										}
									}
								}
								JOINT lthumb
								{
									OFFSET 0.000000 0.000000 0.000000
									CHANNELS 3 Zrotation Yrotation Xrotation
									End Site
									{
										OFFSET 0.000000 0.000000 0.000000
									}
								}
							}
						}
					}
				}
				JOINT rclavicle
				{
					OFFSET 0.000000 0.000000 0.000000
					CHANNELS 3 Zrotation Yrotation Xrotation
					JOINT rhumerus
					{
						OFFSET -3.136600 1.374050 -0.404650
						CHANNELS 3 Zrotation Yrotation Xrotation
						JOINT rradius
						{
							OFFSET -5.241900 -0.000000 -0.000000
							CHANNELS 3 Zrotation Yrotation Xrotation
							JOINT rwrist
							{
								OFFSET -3.444170 -0.000000 -0.000000
								CHANNELS 3 Zrotation Yrotation Xrotation
								JOINT rhand
								{
									OFFSET 0.000000 0.000000 0.000000
									CHANNELS 3 Zrotation Yrotation Xrotation
									JOINT rfingers
									{
										OFFSET -0.622530 -0.000000 -0.000000
										CHANNELS 3 Zrotation Yrotation Xrotation
										End Site
										{
											OFFSET 0.000000 0.000000 0.000000
										}
									}
								}
								JOINT rthumb
								{
									OFFSET 0.000000 0.000000 0.000000
									CHANNELS 3 Zrotation Yrotation Xrotation
									End Site
									{
										OFFSET 0.000000 0.000000 0.000000
									}
								}
							}
						}
					}
				}
			}
		}
	}
}
MOTION
Frames: 7
Frame Time: 0.008333
-1.301678 27.764431 28.696930 -172.773748 -21.328820 175.422448 9.522297 1.896033 -1.474271 -22.567214 -12.900631 -12.668824 5.944252 14.962929 45.018341 3.193902 -4.635165 -3.970727 0.458000 -4.341400 -12.039000 -14.482990 -3.499862 -1.599291 47.283197 13.599171 -10.256885 -3.625704 -12.390170 35.986288 -3.376118 9.671508 7.396134 -0.137500 2.389700 -6.583800 10.561050 2.674419 22.729640 0.196252 4.819718 -1.931843 -6.372137 3.028921 -3.261489 -1.771142 -0.407835 -0.442361 2.871430 -1.016240 16.184603 1.321100 -1.029800 4.365900 -0.041713 -4.784256 3.001124 -80.735789 13.026761 20.910890 10.813835 -37.694111 -4.333985 0.175559 2.311551 14.032601 13.728982 -4.772310 -1.784400 -7.125000 0.000000 0.000000 -9.243500 22.684300 5.027500 -2.574632 7.253127 4.684024 84.170948 0.698260 35.376658 -19.976522 41.427872 -4.929524 -0.977489 -4.635914 18.328421 -17.482953 8.449076 -4.322100 7.125000 0.000000 0.000000 6.353000 -16.006800 4.382200 
-1.353423 27.770202 28.684094 -172.765649 -20.851720 175.488913 9.515590 1.904435 -1.484399 -22.694958 -12.623688 -12.450742 5.919628 14.905886 44.877456 3.130757 -4.443061 -4.101596 0.427200 -4.194500 -11.624600 -14.487717 -3.502864 -1.621340 47.336019 13.496249 -10.038652 -3.619643 -12.341918 35.862525 -3.312499 9.350136 6.910619 -0.157900 2.560700 -7.058000 10.420959 2.579943 22.485775 0.215639 4.654822 -1.939875 -6.283498 2.938781 -3.230247 -1.685609 -0.275339 -0.469073 2.831903 -0.831062 16.132610 1.198900 -0.910000 4.292900 -0.039710 -4.800079 3.003026 -80.390881 13.252545 21.696441 11.056871 -37.968545 -4.391921 0.172438 2.312250 14.173878 13.837452 -4.745455 -1.793000 -7.125000 0.000000 0.000000 -9.159100 22.707800 4.975400 -2.580432 7.282071 4.669153 84.393915 0.462810 34.739172 -19.516420 41.125183 -4.815913 -1.010326 -4.576528 19.372832 -17.411546 8.424570 -4.284300 7.125000 0.000000 0.000000 6.378800 -16.101300 4.387100 
-1.402979 27.776571 28.668968 -172.783453 -20.402964 175.556050 9.510678 1.910753 -1.497950 -22.848015 -12.368197 -12.190543 5.886805 14.840879 44.705724 3.071780 -4.263613 -4.238918 0.390700 -4.013400 -11.114400 -14.492320 -3.503501 -1.645165 47.374686 13.406056 -9.816078 -3.624335 -12.299982 35.761318 -3.196812 8.761627 6.339220 -0.147200 2.472800 -6.814100 10.243698 2.484667 22.238984 0.235490 4.475924 -1.944184 -6.178384 2.843121 -3.158545 -1.600342 -0.154735 -0.550536 2.777493 -0.659724 16.078352 1.062400 -0.794500 4.238000 -0.040122 -4.801664 3.003084 -80.005598 13.442291 22.549386 11.329142 -38.267467 -4.457186 0.162161 2.316668 14.221369 13.911527 -4.628304 -1.775200 -7.125000 0.000000 0.000000 -9.100900 22.821900 4.918900 -2.576615 7.294351 4.655930 84.567918 0.261004 34.131672 -19.042299 40.794815 -4.710349 -1.026448 -4.531323 20.018484 -17.375420 8.315543 -4.230500 7.125000 0.000000 0.000000 6.387200 -16.266200 4.370000 
-1.447161 27.782641 28.652251 -172.850727 -19.976340 175.628710 9.508687 1.915968 -1.513635 -23.038209 -12.123646 -11.887562 5.843873 14.765580 44.494301 3.035838 -4.150409 -4.406805 0.367000 -3.891200 -10.770700 -14.495916 -3.501519 -1.668681 47.391050 13.332936 -9.578084 -3.637890 -12.265971 35.690464 -3.067508 8.127428 5.695718 -0.140700 2.417400 -6.660800 9.979657 2.405040 22.030883 0.251808 4.298743 -1.949626 -6.078807 2.750437 -3.087535 -1.496217 -0.027913 -0.685807 2.758768 -0.491739 16.032819 0.941500 -0.681600 4.227600 -0.037171 -4.804922 2.998357 -79.581838 13.542274 23.282004 11.520043 -38.476138 -4.499430 0.155467 2.309230 14.507402 13.930946 -4.541387 -1.754700 -7.125000 0.000000 0.000000 -9.079800 22.920600 4.886400 -2.585385 7.307241 4.634744 84.801787 0.074429 33.380593 -18.520453 40.441774 -4.615617 -1.045495 -4.498518 20.490405 -17.431494 8.201979 -4.200900 7.125000 0.000000 0.000000 6.340600 -16.410000 4.317800 
-1.489154 27.785129 28.633941 -172.952369 -19.606177 175.715694 9.502448 1.923799 -1.527532 -23.239796 -11.847632 -11.607918 5.788969 14.683768 44.249029 3.034056 -4.143430 -4.511655 0.333300 -3.710400 -10.263500 -14.499896 -3.499990 -1.693801 47.385909 13.248484 -9.341519 -3.661701 -12.240389 35.651504 -2.917453 7.419280 4.953099 -0.129300 2.317800 -6.384700 9.648763 2.321255 21.809941 0.271623 4.110798 -1.957812 -5.889225 2.648830 -3.040228 -1.463471 0.111377 -0.771718 2.746254 -0.310370 15.989808 0.837100 -0.567700 4.202200 -0.007082 -4.817976 2.996365 -79.242963 13.508937 23.778572 11.416268 -38.463981 -4.469056 0.167629 2.290535 14.951793 14.041182 -4.573385 -1.772500 -7.125000 0.000000 0.000000 -8.998000 22.902500 4.845100 -2.602540 7.320847 4.621774 85.013363 -0.133869 32.568124 -17.994702 40.053887 -4.545968 -1.049950 -4.490525 20.484154 -17.622060 7.972303 -4.172500 7.125000 0.000000 0.000000 6.208700 -16.634400 4.196500 
-1.526370 27.785925 28.613243 -173.058974 -19.280939 175.786262 9.493097 1.932312 -1.541343 -23.427025 -11.576681 -11.304200 5.727585 14.594848 43.977406 3.040811 -4.161859 -4.616465 0.308200 -3.569100 -9.867400 -14.506139 -3.495751 -1.722648 47.395286 13.162396 -9.081859 -3.688820 -12.219045 35.632687 -2.762880 6.717292 4.189467 -0.109000 2.128800 -5.861700 9.230209 2.221674 21.586696 0.297147 3.892154 -1.966892 -5.619250 2.526500 -3.007314 -1.416512 0.255987 -0.826884 2.733798 -0.127856 15.939878 0.703000 -0.446700 4.158900 0.045963 -4.842283 2.994868 -78.960418 13.485172 24.087428 11.234743 -38.412050 -4.430778 0.180799 2.278634 15.583142 14.205240 -4.500788 -1.772600 -7.125000 0.000000 0.000000 -8.875400 22.982700 4.761000 -2.602376 7.345557 4.620586 85.204219 -0.416348 31.795939 -17.529939 39.675584 -4.510204 -1.050922 -4.496635 20.146506 -17.983210 7.724476 -4.180800 7.125000 0.000000 0.000000 5.969600 -16.842200 4.005900 
-1.560999 27.788910 28.590257 -173.153744 -19.003487 175.893525 9.486598 1.938698 -1.560228 -23.580204 -11.287429 -11.067828 5.662832 14.506500 43.699081 3.068858 -4.244899 -4.685238 0.288100 -3.451900 -9.539400 -14.511146 -3.493641 -1.739370 47.416472 13.128996 -8.865333 -3.715896 -12.206246 35.627917 -2.611831 6.052566 3.395934 -0.092600 1.963000 -5.403400 8.905540 2.152968 21.301111 0.312739 3.716894 -1.972986 -5.477813 2.436289 -2.937352 -1.349731 0.357007 -0.874815 2.731194 0.005479 15.897966 0.604700 -0.354500 4.106600 0.070124 -4.841522 3.001313 -78.599567 13.438806 24.410324 11.070700 -38.328607 -4.387065 0.189529 2.250933 16.278834 14.269373 -4.468131 -1.765700 -7.125000 0.000000 0.000000 -8.823600 23.044200 4.719900 -2.625340 7.353712 4.622442 85.468793 -0.687036 30.785425 -16.954783 39.291393 -4.488944 -1.070551 -4.512074 19.593690 -18.503440 7.564809 -4.254900 7.125000 0.000000 0.000000 5.642100 -16.922500 3.774000 
